<svg height="512" viewBox="0 0 512 512" width="512" xmlns="http://www.w3.org/2000/svg"><g id="Filled_outline" data-name="Filled outline"><path d="m344 320a395.209 395.209 0 0 1 -2.03 40 394.544 394.544 0 0 1 -18.21 84.72l-3.76 11.28h-48v-80h-32v80h-48l-3.76-11.28a395.325 395.325 0 0 1 -15.15-61.55q-1.875-11.535-3.06-23.17a395.209 395.209 0 0 1 -2.03-40z" fill="#91563a"/><path d="m176 456h64a0 0 0 0 1 0 0v32a0 0 0 0 1 0 0h-64a16 16 0 0 1 -16-16 16 16 0 0 1 16-16z" fill="#754029"/><path d="m288 456h64a0 0 0 0 1 0 0v32a0 0 0 0 1 0 0h-64a16 16 0 0 1 -16-16 16 16 0 0 1 16-16z" fill="#754029" transform="matrix(-1 0 0 -1 624 944)"/><path d="m344 320a395.209 395.209 0 0 1 -2.03 40h-171.94a395.209 395.209 0 0 1 -2.03-40z" fill="#865036"/><path d="m376 120h-72v-24a16 16 0 0 0 16-16 16 16 0 0 0 -16-16 40 40 0 0 0 -40-40h-16a40 40 0 0 0 -40 40 16 16 0 0 0 -16 16 16 16 0 0 0 16 16v24h-72a80 80 0 0 0 -80 80v24h80v64h240v-72h80v-16a80 80 0 0 0 -80-80z" fill="#fdc8a2"/><path d="m376 120h-56l-2.813 9.847a63.637 63.637 0 0 1 -61.187 46.153 63.637 63.637 0 0 1 -61.187-46.153l-2.813-9.847h-56a80 80 0 0 0 -80 80v24h80v64h240v-72h80v-16a80 80 0 0 0 -80-80z" fill="#d65246"/><path d="m200 24h72a32 32 0 0 1 32 32 0 0 0 0 1 0 0h-72a32 32 0 0 1 -32-32 0 0 0 0 1 0 0z" fill="#91563a"/><path d="m456 216-16 120 1.541 6.164a40.107 40.107 0 0 1 -14.841 41.814 40.1 40.1 0 0 1 -24.069 8.022h-12.684a13.947 13.947 0 0 1 -13.947-13.947 13.947 13.947 0 0 1 9.537-13.232l14.463-4.821h-16a8 8 0 0 1 -8-8v-136z" fill="#fdc8a2"/><path d="m56 224 16 120-1.541 6.164a40.107 40.107 0 0 0 14.846 41.814 40.1 40.1 0 0 0 24.064 8.022h12.684a13.947 13.947 0 0 0 13.947-13.947 13.947 13.947 0 0 0 -9.537-13.232l-14.463-4.821h16a8 8 0 0 0 8-8v-136z" fill="#fdc8a2"/><path d="m386.8 238.4-10.8-14.4v-40h-240v40l-10.8 14.4a66 66 0 0 0 -13.2 39.6 66 66 0 0 0 66 66h156a66 66 0 0 0 66-66 66 66 0 0 0 -13.2-39.6z" fill="#d65246"/><path d="m464 200a88.1 88.1 0 0 0 -88-88h-64v-9.359a24.006 24.006 0 0 0 -.119-45.315 8.052 8.052 0 0 0 .119-1.326 40.045 40.045 0 0 0 -40-40h-72a8 8 0 0 0 -8 8 39.825 39.825 0 0 0 9.981 26.393 47.206 47.206 0 0 0 -1.5 6.8 24.016 24.016 0 0 0 -.481 45.449v9.358h-64a87.7 87.7 0 0 0 -47.595 13.971l8.664 13.451a71.737 71.737 0 0 1 38.931-11.422h49.963l1.155 4.049a71.948 71.948 0 0 0 68.882 51.951 71.64 71.64 0 0 0 68.884-51.956l1.153-4.044h49.963a72.081 72.081 0 0 1 72 72v8h-64v-24h-16v40a8 8 0 0 0 1.6 4.8l10.8 14.4a58 58 0 0 1 -46.4 92.8h-156a58 58 0 0 1 -46.4-92.8l10.8-14.4a8 8 0 0 0 1.6-4.8v-40h-16v32h-64v-16a71.5 71.5 0 0 1 21.312-51.133l-11.265-11.362a87.391 87.391 0 0 0 -26.047 62.495s.005 24.07.005 24.1c0 .119 15.863 119.437 15.863 119.437l-1.17 4.68a48.022 48.022 0 0 0 17.814 50.167c12.556 9.385 26.542 9.616 41.538 9.616a21.941 21.941 0 0 0 17.889-34.658 23.861 23.861 0 0 0 4.061-13.342v-16.307a73.421 73.421 0 0 0 17.127 6.343c.862 11.5 2.223 23.049 4.066 34.418a404.808 404.808 0 0 0 15.457 62.8l.25.75h-4.9a24 24 0 0 0 0 48h64a8 8 0 0 0 8-8v-104.004h16v104a8 8 0 0 0 8 8h64a24 24 0 0 0 0-48h-4.9l.25-.749a402.755 402.755 0 0 0 17.934-80.539l-15.892-1.857a386.725 386.725 0 0 1 -17.222 77.335l-1.937 5.81h-34.233v-72a8 8 0 0 0 -8-8h-32a8 8 0 0 0 -8 8v72h-34.233l-1.937-5.809a388.766 388.766 0 0 1 -14.844-60.3c-1.6-9.88-2.825-19.9-3.657-29.906.225 0 .446.017.671.017h156a73.518 73.518 0 0 0 34-8.307v8.305a23.858 23.858 0 0 0 4.061 13.341 21.942 21.942 0 0 0 17.889 34.659c14.622 0 29.024-.261 41.549-9.62a48.015 48.015 0 0 0 17.8-50.16l-1.169-4.678 3.929-29.467-15.859-2.115-4.131 30.983a8 8 0 0 0 .169 3l1.539 6.158a32.045 32.045 0 0 1 -11.865 33.472c-9.151 6.862-20.807 6.43-31.963 6.43a5.957 5.957 0 0 1 -5.95-5.95 5.89 5.89 0 0 1 .906-3.121 24 24 0 0 0 31.095-22.932v-16h-16v16a8 8 0 0 1 -16 0v-19.5a73.927 73.927 0 0 0 9.2-98.9l-7.2-9.6h60.862l-8.847 66.358 15.859 2.114s10.06-75.483 10.064-75.517c.019-.162.062-16.955.062-16.955zm-192-168a24.042 24.042 0 0 1 22.629 16h-62.629a24.042 24.042 0 0 1 -22.629-16zm17.5 124.782a55.231 55.231 0 0 1 -33.5 11.218 55.878 55.878 0 0 1 -53.391-40h5.391a8 8 0 0 0 8-8v-24a8 8 0 0 0 -8-8 8 8 0 1 1 0-16 8 8 0 0 0 8-8 32.365 32.365 0 0 1 .166-3.275 39.766 39.766 0 0 0 15.834 3.275h64a8 8 0 0 0 8 8 8 8 0 1 1 0 16 8 8 0 0 0 -8 8v24a8 8 0 0 0 8 8h5.391a55.236 55.236 0 0 1 -19.891 28.782zm46.5 307.218a8 8 0 0 1 0 16h-56v-16zm-104 0v16h-56a8 8 0 0 1 0-16zm-104-104a8 8 0 0 1 -16 0v-16h-16v16a24 24 0 0 0 31.094 22.929 5.923 5.923 0 0 1 -5.044 9.071h-12.68a33.639 33.639 0 0 1 -19.27-6.42 32.051 32.051 0 0 1 -11.879-33.48l1.54-6.161a8.006 8.006 0 0 0 .169-3l-14.792-110.939h54.862l-1.2 1.6a73.927 73.927 0 0 0 9.2 98.9z"/><path d="m232 72h16v16h-16z"/><path d="m264 72h16v16h-16z"/><path d="m240 104h32v16h-32z"/><path d="m237.657 128.4-11.314 11.314a41.991 41.991 0 0 0 59.314 0l-11.314-11.314a25.971 25.971 0 0 1 -36.686 0z"/></g></svg>