<svg id="Capa_1" enable-background="new 0 0 512 512" height="512" viewBox="0 0 512 512" width="512" xmlns="http://www.w3.org/2000/svg"><g><g><g><path d="m450.65 141.67c.04.01.08.01.12.01h-.12z" fill="#fdb441"/></g><path d="m425.932 314.987 2.633 162.5c0 13.033-10.565 23.598-23.598 23.598l-17.006 3.415h-285.516c-13.033 0-23.598-10.565-23.598-23.598v-155.697l6.11-10.132c0-14.467 10.96-27.424 14.211-40.867 2.153-8.901-5.246-15.526-6.95-25.852 4.138-10.004 9.234-19.526 15.1-28.568 18.082-27.701 36.59-60.405 36.59-93.397l-9.753-95.29c0-13.033 10.565-23.598 23.598-23.598h174.887l20.302 4.321c13.033 0 20.302 7.516 20.302 20.548l-9.753 95.386c0 32.993 15.889 63.248 33.971 90.948 5.772 8.946 10.774 18.468 14.907 28.472 8.754 20.873 13.563 43.764 13.563 67.811z" fill="#fed2a4"/><path d="m428.565 315.918 4.544 9.28v155.705c0 13.03-10.572 23.592-23.602 23.592h-29.259c13.03 0 23.602-10.563 23.602-23.592v-156.582l4.751-9.08c0-10.017 1.946-22.254.338-31.806-2.252-13.383-13.551-22.903-18.656-35.082-4.135-10.007-9.138-19.525-14.912-28.469-18.082-27.708-36.583-60.41-36.583-93.404l9.753-95.384c0-13.03-10.572-23.592-23.602-23.592h29.259c13.03 0 23.602 10.563 23.602 23.592l-9.753 95.384c0 32.994 18.502 65.696 36.583 93.404 5.774 8.944 10.777 18.462 14.912 28.469 4.374 10.436-.382 22.898 1.917 34.236s7.106 21.304 7.106 33.329z" fill="#ffbd86"/><path d="m25.56 141.68c-2.12 0-3.83-1.71-3.83-3.83v-20.19c0-2.11 1.71-3.83 3.83-3.83h35.67c.04 0 .12-8.17.12-8.17 0-4.45 4.82-7.23 8.67-5.01l19.14 11.05 19.14 11.05c3.85 2.22 3.85 7.79 0 10.01l-19.14 11.05-19.14 11.05c-3.85 2.23-8.67-.55-8.67-5v-8.19c-.04.01-.08.01-.12.01z" fill="#fbe08b"/><path d="m425.932 314.987 7.173 10.221c-60.158-5.774-112.029 12.388-155.533 54.96-5.614 5.493-12.994 8.811-20.849 8.811h-1.586c-7.856 0-15.238-3.319-20.852-8.814-43.41-42.49-95.197-60.73-155.439-54.957v-9.043c0-24.047 4.809-46.938 13.371-67.811h327.323c3.759 8.962-5.393 24.09-3.157 33.729 2.973 12.808 9.549 19.183 9.549 32.904z" fill="#fe646f"/><path d="m433.11 316.166v9.041c-9.977-.956-19.73-1.258-29.259-.887v-8.154c0-24.051-4.818-46.941-13.566-67.812h29.259c8.748 20.871 13.566 43.761 13.566 67.812z" fill="#fd4755"/><path d="m486.44 141.68c2.12 0 3.83-1.71 3.83-3.83v-20.19c0-2.11-1.71-3.83-3.83-3.83l-35.79.01v-8.18c0-4.45-4.82-7.23-8.67-5.01l-19.14 11.05-19.14 11.05c-3.85 2.22-3.85 7.79 0 10.01l19.14 11.05 19.14 11.05c3.85 2.23 8.67-.55 8.67-5v-8.19c.04.01.08.01.12.01z" fill="#fbe08b"/></g><g><path d="m247.385 210.113c0 4.745 3.846 8.591 8.591 8.591s8.591-3.846 8.591-8.591c0-4.744-3.846-8.591-8.591-8.591-4.744 0-8.591 3.846-8.591 8.591z"/><path d="m410.915 215.781c-17.42-26.686-35.227-58.103-35.369-88.924l9.713-94.997c.026-.253.039-.508.039-.763 0-17.147-13.95-31.097-31.098-31.097h-50.661c-4.143 0-7.5 3.357-7.5 7.5 0 4.142 3.357 7.5 7.5 7.5h50.661c8.761 0 15.909 7.034 16.094 15.751l-9.71 94.97c-.026.253-.039.508-.039.763 0 34.874 19.113 68.855 37.787 97.463 3.503 5.429 6.705 11.083 9.581 16.907h-66.383c-4.143 0-7.5 3.357-7.5 7.5s3.357 7.5 7.5 7.5h72.938c7.388 19.187 11.138 39.45 11.138 60.312v.949c-58.914-3.594-110.45 15.783-153.278 57.694-4.397 4.303-9.939 6.672-15.603 6.672h-1.586c-5.666 0-11.208-2.37-15.605-6.674-42.803-41.896-94.308-61.269-153.185-57.69v-.951c0-20.723 3.701-40.991 10.987-60.312h211.014c4.143 0 7.5-3.357 7.5-7.5s-3.357-7.5-7.5-7.5h-204.469c2.869-5.745 6.12-11.423 9.718-16.969 18.696-28.642 37.809-62.623 37.809-97.497 0-.255-.013-.51-.039-.764l-9.71-94.874c.185-8.717 7.333-15.75 16.094-15.75h112.553c4.143 0 7.5-3.358 7.5-7.5 0-4.143-3.357-7.5-7.5-7.5h-112.554c-17.147 0-31.098 13.95-31.098 31.098 0 .255.013.51.039.764l9.713 94.901c-.143 30.821-17.949 62.237-35.38 88.94-6.26 9.648-11.555 19.669-15.746 29.804-9.246 22.538-13.934 46.31-13.934 70.658v164.737c0 17.147 13.95 31.098 31.098 31.098h36.019c4.143 0 7.5-3.358 7.5-7.5 0-4.143-3.357-7.5-7.5-7.5h-36.019c-8.876 0-16.098-7.222-16.098-16.098v-148.761c26.376-1.712 51.256 1.473 74.034 9.519 24.755 8.744 47.855 23.502 68.659 43.865 5.314 5.201 11.741 8.674 18.598 10.148v101.327h-75.993c-4.143 0-7.5 3.357-7.5 7.5 0 4.142 3.357 7.5 7.5 7.5h237.863c17.147 0 31.098-13.95 31.098-31.098v-164.737c0-24.538-4.76-48.329-14.132-70.676-4.264-10.321-9.492-20.305-15.558-29.708zm-1.407 281.219h-146.87v-101.025c7.447-1.254 14.458-4.848 20.18-10.447 20.831-20.384 43.968-35.152 68.77-43.896 22.78-8.031 47.649-11.211 74.018-9.493v148.763c-.001 8.876-7.222 16.098-16.098 16.098z"/><path d="m112.05 139.255c4.156-2.398 6.638-6.697 6.638-11.5 0-4.805-2.482-9.104-6.638-11.5l-38.282-22.101c-4.156-2.397-9.12-2.396-13.278.005-4.157 2.401-6.64 6.701-6.64 11.501v.67h-28.29c-6.247 0-11.33 5.083-11.33 11.33v20.19c0 6.247 5.083 11.329 11.33 11.329h28.29v.681c0 4.804 2.484 9.104 6.646 11.503 2.078 1.198 4.356 1.796 6.633 1.796 2.283 0 4.564-.602 6.641-1.804zm-46.085-3.496c-1.332-1.04-2.96-1.589-4.615-1.589-.128 0-.256.003-.384.01h-31.736v-12.85h31.735c1.782.098 3.563-.459 4.999-1.579 1.82-1.421 2.885-3.602 2.885-5.911v-5.205l33.119 19.12-33.118 19.121v-5.206c0-2.31-1.065-4.49-2.885-5.911z"/><path d="m486.44 106.33h-28.29v-.67c0-4.8-2.482-9.1-6.64-11.501-4.157-2.4-9.121-2.404-13.28-.004l-38.276 22.097c-4.159 2.398-6.642 6.698-6.642 11.503s2.482 9.104 6.638 11.5l38.272 22.096c2.082 1.206 4.366 1.809 6.651 1.809 2.276 0 4.555-.599 6.631-1.796 4.162-2.399 6.646-6.699 6.646-11.503v-.681h28.289c6.247 0 11.33-5.082 11.33-11.329v-20.19c.001-6.248-5.083-11.331-11.329-11.331zm-3.67 27.85h-31.735c-1.787-.093-3.564.459-4.999 1.579-1.82 1.421-2.885 3.602-2.885 5.911v5.206l-33.119-19.121 33.119-19.12v5.205c0 2.31 1.064 4.49 2.885 5.911 1.436 1.12 3.212 1.677 4.999 1.579h31.735z"/></g></g></svg>